<svg width="91" height="90" viewBox="0 0 91 90" fill="none" xmlns="http://www.w3.org/2000/svg">
<g clip-path="url(#clip0_743_375)">
<path d="M61.2383 36.8438C55.9648 37.4766 55.9648 43.3125 55.9648 43.3125H66.4414C66.5117 43.3125 67.0039 36.8438 61.2383 36.8438ZM26.9258 44.3672H35.9258L31.4258 27.2109L26.9258 44.3672Z" fill="black"/>
<path d="M0.0664062 0V90H90.0664V0H0.0664062ZM40.4961 62.2969L37.332 50.9766H25.5195L22.4258 62.2969H15.8164L27.0664 23.6953V21.0234H35.6445L47.8086 62.2969H40.4961ZM72.8398 48.5156H55.9648C57.3008 62.0156 70.8711 55.5469 70.8711 55.5469V61.1719C70.8711 61.1719 69.957 63 60.4648 63C50.9727 63 49.0039 50.1328 49.0039 50.1328V46.8281C49.0039 46.8281 49.918 31.3594 61.168 31.3594C72.418 31.3594 72.7695 41.625 72.7695 41.625V48.5156H72.8398Z" fill="black"/>
</g>
<defs>
<clipPath id="clip0_743_375">
<rect width="90" height="90" fill="white" transform="translate(0.0664062)"/>
</clipPath>
</defs>
</svg>
