<svg width="91" height="91" viewBox="0 0 91 91" fill="none" xmlns="http://www.w3.org/2000/svg">
<path d="M20.4027 11.8212C15.5877 11.8212 12.0289 16.0362 12.1902 20.6037C12.3402 24.9949 12.1414 30.6837 10.7089 35.3187C9.27266 39.9687 6.84641 42.9162 2.87891 43.2949V47.5624C6.84641 47.9412 9.27266 50.8887 10.7089 55.5387C12.1414 60.1774 12.3402 65.8624 12.1864 70.2537C12.0289 74.8212 15.5877 79.0362 20.4064 79.0362H69.7339C74.5489 79.0362 78.1114 74.8212 77.9539 70.2537C77.8002 65.8624 77.9989 60.1774 79.4277 55.5387C80.8677 50.8887 83.2902 47.9412 87.2539 47.5624V43.2949C83.2864 42.9162 80.8677 39.9687 79.4277 35.3187C77.9989 30.6837 77.8002 24.9949 77.9539 20.6037C78.1114 16.0362 74.5489 11.8212 69.7339 11.8212H20.4027ZM60.0814 53.1949C60.0814 59.4874 55.3902 63.3049 47.6014 63.3049H34.3414C34.1535 63.3054 33.9673 63.2688 33.7935 63.1972C33.6197 63.1257 33.4618 63.0205 33.3287 62.8878C33.1956 62.755 33.0901 62.5974 33.018 62.4238C32.946 62.2502 32.9089 62.0641 32.9089 61.8762V28.9812C32.9094 28.7935 32.9468 28.6078 33.0191 28.4347C33.0914 28.2615 33.197 28.1043 33.33 27.972C33.463 27.8397 33.6208 27.7348 33.7944 27.6635C33.9679 27.5921 34.1538 27.5557 34.3414 27.5562H47.5227C54.0177 27.5562 58.2814 31.0699 58.2814 36.4737C58.2814 40.2612 55.4127 43.6587 51.7602 44.2512V44.4499C56.7327 44.9937 60.0814 48.4399 60.0814 53.1949ZM46.1539 32.0862H38.5939V42.7662H44.9614C49.8852 42.7662 52.5964 40.7824 52.5964 37.2387C52.5964 33.9199 50.2639 32.0862 46.1539 32.0862ZM38.5939 46.9999V58.7712H46.4314C51.5577 58.7712 54.2689 56.7124 54.2689 52.8462C54.2689 48.9837 51.4827 46.9999 46.1014 46.9999H38.5939Z" fill="black"/>
</svg>
