<svg width="91" height="91" viewBox="0 0 91 91" fill="none" xmlns="http://www.w3.org/2000/svg">
<g clip-path="url(#clip0_757_332)">
<path d="M43.0655 0.14209C46.3655 5.47834 42.0155 12.5396 38.5392 16.4846C35.168 20.3096 31.0692 23.5083 27.3455 26.9846C23.348 30.7196 19.5042 34.6496 16.2192 39.0333C9.64549 47.8046 5.61799 58.8333 8.57674 69.7796C11.5317 80.7146 21.0042 87.6746 31.703 90.1383C26.303 87.8058 21.2555 81.8771 21.2405 75.8133C21.2292 69.1946 25.4217 63.5808 30.6342 59.8908C30.008 62.2608 29.6667 64.4283 31.2155 66.5433C31.9342 67.511 32.9154 68.2522 34.0428 68.6789C35.1701 69.1057 36.3961 69.2 37.5755 68.9508C43.1517 67.7283 43.4105 61.6008 40.103 58.0233C36.833 54.4871 33.6717 50.4896 34.913 45.3596C35.5392 42.7908 37.118 40.3796 39.1167 38.6583C37.5792 42.7008 41.948 46.6833 44.828 48.6708C49.823 52.1133 55.3017 54.7158 59.8917 58.7508C64.7217 62.9958 68.2917 68.7296 67.568 75.3821C66.788 82.5933 61.058 87.6071 54.6305 90.1421C68.213 87.1421 82.2492 76.6046 82.5305 61.5408C82.8792 50.1708 75.3942 40.1021 63.188 33.8508C63.9005 35.6508 63.4655 36.4646 62.9705 37.3158C60.908 40.8558 55.163 41.6358 52.3392 38.0058C47.8205 32.2008 52.433 25.9458 53.078 19.7996C53.8842 12.0933 49.0542 4.61584 43.0655 0.14209Z" fill="black"/>
</g>
<defs>
<clipPath id="clip0_757_332">
<rect width="90" height="90" fill="white" transform="translate(0.0664062 0.14209)"/>
</clipPath>
</defs>
</svg>
