<svg width="91" height="90" viewBox="0 0 91 90" fill="none" xmlns="http://www.w3.org/2000/svg">
<path d="M75.761 38.8125V43.1437H71.4242V47.4834H75.761V51.8231H80.1007V47.4834H84.4404V43.1437H80.1007V38.8125H75.761ZM65.9173 38.8125H61.5748V43.1437H57.2351V47.4834H61.5748V51.8231H65.9145V47.4834H70.2542V43.1437H65.9145L65.9173 38.8125ZM55.6404 53.5106C53.7649 56.8441 50.84 59.4642 47.321 60.9631C43.8019 62.462 39.8861 62.7556 36.1829 61.7983C32.4797 60.8409 29.1968 58.6863 26.8451 55.6698C24.4934 52.6532 23.2048 48.9439 23.1798 45.119C23.1548 41.2942 24.3948 37.5683 26.7068 34.5212C29.0189 31.4742 32.2734 29.2769 35.9637 28.2712C39.6541 27.2655 43.5734 27.5079 47.1117 28.9607C50.65 30.4134 53.6089 32.995 55.5279 36.3037L70.6873 27.585C66.847 20.9417 60.9203 15.7526 53.828 12.8236C46.7356 9.89464 38.8745 9.38976 31.4657 11.3874C24.0569 13.385 17.5151 17.7734 12.8566 23.8708C8.19798 29.9682 5.68334 37.4334 5.70324 45.1067C5.72314 52.7801 8.27646 60.2321 12.9666 66.3053C17.6567 72.3784 24.2212 76.7328 31.6402 78.692C39.0593 80.6512 46.9177 80.1056 53.9947 77.1398C61.0718 74.1741 66.9715 68.9543 70.7773 62.2912L55.6404 53.5106Z" fill="black"/>
</svg>
