<svg width="90" height="90" viewBox="0 0 90 90" fill="none" xmlns="http://www.w3.org/2000/svg">
<path d="M5.44531 0L12.6543 80.973L45.0228 90L77.4768 80.9415L84.6903 0H5.44531ZM69.7098 18.5535L67.3068 45.5265L67.3158 45.675L67.3068 46.008L65.5968 64.863L65.4123 66.5415L45.0678 72.1665L45.0498 72.1845L24.7458 66.5235L23.3688 50.931H33.3228L34.0293 58.86L45.0678 61.8525L56.1423 58.8195L57.3123 45.909H34.1643L33.9663 43.7265L33.5118 38.6145L33.2778 35.8695H58.1988L59.1078 25.8255H21.1368L20.9388 23.643L20.4888 18.5265L20.2503 15.7815H69.9483L69.7098 18.5535Z" fill="black"/>
</svg>
