<svg width="91" height="91" viewBox="0 0 91 91" fill="none" xmlns="http://www.w3.org/2000/svg">
<g clip-path="url(#clip0_743_373)">
<path d="M15.4602 16.1067C15.4602 16.1067 34.4089 6.63797 43.8814 1.89797C45.6055 1.04808 47.5144 0.642055 49.4352 0.716724C52.3077 0.892974 55.7239 3.67172 55.7239 3.67172L90.0664 38.018V74.7267H74.0802V90.713H36.7752L3.02516 56.963C1.20266 55.088 0.0664062 52.4442 0.0664062 49.8567C0.0664062 48.6605 0.741406 46.7892 1.25141 45.713L15.4602 16.1067ZM18.0064 18.653V62.8542C18.0139 64.8905 18.0852 66.6942 19.8739 68.5092L38.3314 86.963H70.3302V70.9767L18.0064 18.653ZM63.2127 16.1105C59.8414 12.7505 56.4289 9.43547 52.9377 6.19922C51.8052 5.19797 50.8114 4.44422 48.9252 4.46672C47.5377 4.51922 45.6627 5.19797 45.6627 5.19797L23.8452 16.1067L63.2127 16.1105Z" fill="black"/>
</g>
<defs>
<clipPath id="clip0_743_373">
<rect width="90" height="90" fill="white" transform="translate(0.0664062 0.713074)"/>
</clipPath>
</defs>
</svg>
