<svg width="60" height="91" viewBox="0 0 60 91" fill="none" xmlns="http://www.w3.org/2000/svg">
<g clip-path="url(#clip0_743_347)">
<path d="M14.8835 0.483032H29.4116V29.6504H14.8837C-4.27547 28.8986 -4.46897 1.27264 14.8835 0.483032ZM14.8835 60.0653H29.4116V30.8979H14.8837C-4.4688 31.6875 -4.27547 59.3135 14.8835 60.0653ZM45.1828 0.483032H30.6543V29.6504H45.1828C64.5997 28.6073 64.3577 1.0784 45.1828 0.483032ZM29.4116 75.8967V61.3128H14.8837C3.02815 61.3128 -4.4688 75.2656 3.77641 85.2873C11.6376 95.2205 29.4117 90.2682 29.4117 75.8967M59.7406 45.4816C59.7406 34.2738 47.5706 27.2311 37.8874 32.835C28.2042 38.4389 28.204 52.5245 37.8874 58.1284C47.5708 63.7323 59.7406 56.6894 59.7406 45.4816Z" fill="black"/>
</g>
<defs>
<clipPath id="clip0_743_347">
<rect width="59.5385" height="90" fill="white" transform="translate(0.296875 0.483032)"/>
</clipPath>
</defs>
</svg>
