<svg width="91" height="90" viewBox="0 0 91 90" fill="none" xmlns="http://www.w3.org/2000/svg">
<path d="M75.0664 70.0875L47.6914 85.275C45.8164 86.25 43.9414 86.25 42.0664 85.275L15.0664 70.0875L64.0039 20.775L65.3164 20.4C66.4414 20.4 67.0789 20.8875 67.1914 21.9L75.0664 70.0875ZM35.1289 21.525L18.0664 49.8375L25.1914 5.02502C25.3039 4.01252 25.9414 3.52502 27.0664 3.52502C27.8164 3.52502 28.3039 3.75002 28.5664 4.46252L36.6289 19.275L35.1289 21.525ZM52.0039 26.25L16.1914 62.2125L43.3789 16.0875C43.7539 15.3375 44.3164 15 45.0664 15C45.8164 15 46.3039 15.3375 46.5664 16.0875L52.0039 26.25Z" fill="black"/>
</svg>
