<svg width="91" height="90" viewBox="0 0 91 90" fill="none" xmlns="http://www.w3.org/2000/svg">
<g clip-path="url(#clip0_779_331)">
<path d="M2.90327 38.6674L28.8629 12.6629L36.4531 20.298C35.3752 24.1156 37.1268 28.2925 40.63 30.3136V55.1953C37.9352 56.7223 36.1387 59.6416 36.1387 62.9652C36.1387 65.3475 37.0851 67.6323 38.7697 69.3168C40.4542 71.0014 42.739 71.9477 45.1213 71.9477C47.5036 71.9477 49.7884 71.0014 51.4729 69.3168C53.1575 67.6323 54.1038 65.3475 54.1038 62.9652C54.1038 59.6416 52.3073 56.7223 49.6126 55.1953V33.3677L58.9095 42.7544C58.5951 43.4281 58.5951 44.1916 58.5951 45.0001C58.5951 47.3824 59.5415 49.6671 61.2261 51.3517C62.9106 53.0363 65.1954 53.9826 67.5777 53.9826C69.96 53.9826 72.2448 53.0363 73.9293 51.3517C75.6139 49.6671 76.5602 47.3824 76.5602 45.0001C76.5602 42.6178 75.6139 40.333 73.9293 38.6484C72.2448 36.9639 69.96 36.0175 67.5777 36.0175C66.7693 36.0175 66.0057 36.0175 65.332 36.3319L53.7895 24.7893C54.3471 22.7091 54.1309 20.4972 53.181 18.5644C52.2311 16.6315 50.6121 15.1091 48.6245 14.2797C46.6932 13.5611 44.6722 13.3815 42.8757 13.8755L35.2405 6.28525L38.7886 2.78205C42.2918 -0.766056 47.9508 -0.766056 51.454 2.78205L87.3393 38.6674C90.8874 42.1706 90.8874 47.8296 87.3393 51.3328L51.454 87.2181C47.9508 90.7662 42.2918 90.7662 38.7886 87.2181L2.90327 51.3328C-0.64484 47.8296 -0.64484 42.1706 2.90327 38.6674Z" fill="black"/>
</g>
<defs>
<clipPath id="clip0_779_331">
<rect width="90" height="90" fill="white" transform="translate(0.121094)"/>
</clipPath>
</defs>
</svg>
