<svg width="91" height="90" viewBox="0 0 91 90" fill="none" xmlns="http://www.w3.org/2000/svg">
<g clip-path="url(#clip0_779_324)">
<mask id="mask0_779_324" style="mask-type:luminance" maskUnits="userSpaceOnUse" x="0" y="0" width="91" height="90">
<path d="M0.246094 0H90.2461V90H0.246094V0Z" fill="white"/>
</mask>
<g mask="url(#mask0_779_324)">
<path fill-rule="evenodd" clip-rule="evenodd" d="M42.9347 15.7012C44.3634 16.1332 45.8846 16.1566 47.3259 15.7687L71.0484 57.7012C69.9501 58.7593 69.1784 60.1103 68.8247 61.5937H21.6572C21.2776 60.0362 20.442 58.6274 19.2572 57.5475L42.9347 15.7012ZM39.4809 13.5825C39.5484 13.6575 39.6234 13.7287 39.6947 13.8L15.9684 55.7437C15.8565 55.7138 15.744 55.6863 15.6309 55.6612V34.335C16.7096 34.0937 17.7263 33.6303 18.616 32.9743C19.5057 32.3183 20.2489 31.4841 20.7984 30.525C21.3456 29.5713 21.6912 28.5154 21.8138 27.4227C21.9364 26.33 21.8333 25.2237 21.5109 24.1725L39.4809 13.5825ZM52.8684 10.4512C53.2485 9.25799 53.3432 7.99219 53.145 6.75565C52.9467 5.51912 52.461 4.34637 51.7269 3.33175C50.9929 2.31712 50.0309 1.48894 48.9185 0.913816C47.806 0.338693 46.5741 0.0326845 45.3218 0.0204043C44.0696 0.00812422 42.8319 0.289915 41.7084 0.843111C40.5849 1.39631 39.6069 2.20547 38.853 3.2055C38.0992 4.20554 37.5906 5.36853 37.3682 6.60094C37.1457 7.83335 37.2156 9.10077 37.5722 10.3012L19.5909 20.8987C18.728 20.0138 17.6716 19.341 16.5047 18.9334C15.3378 18.5258 14.0923 18.3944 12.8661 18.5496C11.6398 18.7048 10.4663 19.1424 9.43772 19.8278C8.40918 20.5133 7.55365 21.428 6.93842 22.5C6.32396 23.5734 5.96517 24.7739 5.88991 26.0084C5.81466 27.2429 6.02496 28.4782 6.50449 29.6182C6.98401 30.7583 7.71986 31.7725 8.6549 32.5821C9.58993 33.3916 10.699 33.9748 11.8959 34.2862V55.7175C10.7016 56.032 9.59561 56.6171 8.66359 57.4275C7.73156 58.2379 6.99847 59.2518 6.52103 60.3909C6.04358 61.5299 5.83459 62.7635 5.91022 63.9963C5.98585 65.229 6.34407 66.4279 6.95717 67.5C7.57155 68.5694 8.42525 69.4821 9.45136 70.1664C10.4775 70.8507 11.6481 71.2881 12.8715 71.4443C14.095 71.6005 15.3379 71.4712 16.5031 71.0667C17.6682 70.6621 18.7238 69.9933 19.5872 69.1125L37.5684 79.71C37.3535 80.447 37.2449 81.211 37.2459 81.9787C37.2435 83.0309 37.4485 84.0732 37.8493 85.0461C38.2502 86.0189 38.8389 86.9031 39.5818 87.6482C40.3248 88.3932 41.2074 88.9844 42.1791 89.388C43.1508 89.7915 44.1925 89.9995 45.2447 90C46.5249 89.9972 47.7859 89.6879 48.9221 89.0978C50.0583 88.5078 51.0367 87.6543 51.7754 86.6086C52.5141 85.5629 52.9917 84.3556 53.1682 83.0875C53.3446 81.8195 53.2148 80.5276 52.7897 79.32L70.6059 68.82C71.4457 69.7691 72.4995 70.5046 73.68 70.9655C74.8606 71.4265 76.1339 71.5996 77.3947 71.4706C78.6554 71.3416 79.8673 70.9141 80.93 70.2237C81.9928 69.5332 82.8757 68.5996 83.5059 67.5C84.1377 66.4103 84.5038 65.187 84.5746 63.9294C84.6454 62.6718 84.4189 61.4152 83.9134 60.2614C83.4079 59.1077 82.6377 58.0893 81.6652 57.2888C80.6927 56.4882 79.5453 55.9281 78.3159 55.6537V34.3537C79.5463 34.079 80.695 33.5192 81.6695 32.7193C82.644 31.9194 83.417 30.9019 83.9263 29.7486C84.4356 28.5954 84.667 27.3386 84.6018 26.0796C84.5366 24.8206 84.1766 23.5945 83.5509 22.5C82.9282 21.4187 82.0611 20.4981 81.0189 19.8118C79.9768 19.1255 78.7886 18.6925 77.5493 18.5475C76.3099 18.4024 75.0538 18.5494 73.8814 18.9765C72.709 19.4037 71.6528 20.0992 70.7972 21.0075L52.8684 10.4512ZM50.6222 13.965L50.9034 13.695L68.9334 24.3187C68.6395 25.351 68.5554 26.4317 68.6861 27.4971C68.8169 28.5624 69.1598 29.5907 69.6947 30.5212C70.2187 31.4399 70.9208 32.2448 71.7599 32.8887C72.5989 33.5326 73.558 34.0026 74.5809 34.2712V55.7212C74.4829 55.7481 74.3853 55.7768 74.2884 55.8075L50.6222 13.965ZM68.9784 65.9325L51.0759 76.485C50.3299 75.6865 49.4276 75.05 48.425 74.6152C47.4225 74.1804 46.3412 73.9565 45.2484 73.9575C42.9759 73.9575 40.9284 74.9025 39.4734 76.425L21.5297 65.85C21.5747 65.7037 21.6159 65.5575 21.6497 65.4075H68.8322C68.8772 65.5837 68.9222 65.76 68.9784 65.9325Z" fill="black"/>
</g>
</g>
<defs>
<clipPath id="clip0_779_324">
<rect width="90" height="90" fill="white" transform="translate(0.246094)"/>
</clipPath>
</defs>
</svg>
