<svg width="91" height="91" viewBox="0 0 91 91" fill="none" xmlns="http://www.w3.org/2000/svg">
<g clip-path="url(#clip0_743_380)">
<path fill-rule="evenodd" clip-rule="evenodd" d="M33.7853 49.2958H44.593C42.7325 42.9677 40.9002 37.1176 39.0974 31.172C37.348 37.1387 35.5733 42.9677 33.7853 49.2958ZM87.3331 1.48328H2.08697C0.549941 1.48328 0.77002 1.81796 0.77002 3.30085V88.656C0.77002 90.1375 0.549942 90.077 1.97869 90.077H87.4414C88.8695 90.077 89.3638 90.1375 89.3638 88.6553V3.40914C89.3638 1.81796 88.8702 1.48328 87.3331 1.48328ZM54.417 68.2802C53.266 68.2802 52.1108 68.1866 50.9654 68.2689C50.1392 68.3308 49.8629 67.9834 49.6428 67.2662C48.5783 63.7991 47.447 60.3334 46.3817 56.867C46.1673 56.1695 45.8607 55.915 45.1049 55.9241C41.2215 55.9691 37.336 55.9649 33.452 55.9192C32.6342 55.9094 32.2581 56.1273 32.0246 56.9387C31.036 60.3869 29.9546 63.8069 28.9555 67.2515C28.7389 67.9982 28.4099 68.2591 27.6167 68.2387C25.2838 68.1803 22.9473 68.2162 20.3928 68.2162C21.0671 66.0751 21.6788 64.0952 22.3117 62.1236C26.1887 50.0298 30.0791 37.9361 33.928 25.8346C34.1966 24.9923 34.5699 24.7328 35.4348 24.7518C38.1671 24.8123 40.9016 24.7673 43.6353 24.7518C44.1465 24.7483 44.4953 24.7785 44.6823 25.3593C49.2561 39.5034 53.8461 53.7346 58.4319 67.8773C58.4516 67.9412 58.4389 68.2802 58.4495 68.2802H54.417ZM68.9731 68.2802H60.5356V36.6395H68.9731V68.2802ZM64.5083 32.3709C61.9314 32.3673 60.0863 30.5934 60.0688 28.1029C60.0519 25.6194 61.9721 23.7723 64.573 23.7695C67.1942 23.7667 69.0414 25.5534 69.0617 28.1085C69.08 30.6011 67.1865 32.3751 64.5083 32.3709Z" fill="black"/>
</g>
<defs>
<clipPath id="clip0_743_380">
<rect width="90" height="90" fill="white" transform="translate(0.0664062 0.780151)"/>
</clipPath>
</defs>
</svg>
