<svg width="90" height="90" viewBox="0 0 90 90" fill="none" xmlns="http://www.w3.org/2000/svg">
<path d="M37.6855 47.6838C28.3874 50.2812 43.3415 55.6467 55.1793 50.5751C53.2408 49.822 51.85 48.9516 51.85 48.9516C46.5709 49.9493 44.1227 50.028 39.3309 49.481C35.3758 49.0282 37.6855 47.6838 37.6855 47.6838ZM53.7618 42.6164C46.7657 43.9629 42.7241 43.92 37.6047 43.3919C33.6468 42.9827 36.2378 41.0639 36.2378 41.0639C25.9982 44.4628 41.9373 48.3187 56.2481 44.133C54.7279 43.598 53.7618 42.6164 53.7618 42.6164ZM59.2455 13.2743C59.2455 13.2743 38.5462 18.443 48.4314 29.8343C51.3501 33.1938 47.6664 36.2144 47.6664 36.2144C47.6664 36.2144 55.0724 32.3915 51.6714 27.6026C48.4947 23.1384 46.0591 20.9215 59.2455 13.2743ZM26.3547 57.1676C50.4888 61.0791 70.3471 55.4055 64.0886 52.5811C64.0886 52.5811 65.7979 53.9908 62.2049 55.0807C55.3741 57.15 33.7677 57.7744 27.7666 55.163C25.6108 54.2243 29.6559 52.9221 30.9278 52.6486C32.2546 52.361 33.0126 52.4137 33.0126 52.4137C30.6135 50.7234 17.5052 55.7311 26.3547 57.1676ZM55.7931 37.8879C56.9533 37.0962 58.5564 36.4085 58.5564 36.4085C58.5564 36.4085 53.9917 37.2248 49.4432 37.6066C43.8759 38.0735 37.9035 38.1656 34.9054 37.7648C27.8073 36.8156 38.7965 34.2049 38.7965 34.2049C38.7965 34.2049 34.5285 33.9159 29.2811 36.4542C23.0746 39.4558 44.6317 40.8234 55.7931 37.8879ZM58.5107 45.2229C58.4587 45.3635 58.2843 45.5217 58.2843 45.5217C73.4338 41.5392 67.8637 31.4838 60.6201 34.0291C59.9852 34.2534 59.6512 34.7765 59.6512 34.7765C59.6512 34.7765 60.0527 34.6148 60.9484 34.4278C64.6096 33.6656 69.8563 39.33 58.5107 45.2229ZM45.7089 34.0959C43.4737 29.0433 35.8954 24.6241 45.7124 16.8708C57.9538 7.20842 51.6721 0.922485 51.6721 0.922485C54.2062 10.9048 42.7347 13.9205 38.594 20.1375C35.7745 24.3731 39.9784 28.9258 45.7089 34.0959ZM58.9206 59.163C49.626 60.9124 38.1616 60.7092 31.3645 59.587C31.3645 59.587 32.7566 60.7401 39.9123 61.2C50.7995 61.8961 67.5234 60.8126 67.9192 55.6608C67.9192 55.6601 67.1584 57.6126 58.9206 59.163ZM35.953 69.9855C33.9231 69.9855 32.1906 70.4876 30.7443 71.126L31.183 72.8789C32.3214 72.4605 33.727 72.0724 35.1726 72.0724C37.1765 72.0724 37.9703 72.8789 37.9703 74.5481V75.9375H37.1266C32.2602 75.9375 30.0644 77.7551 30.0644 80.595C30.0644 83.0412 31.5121 84.3968 34.236 84.3968C35.9868 84.3968 37.2953 83.8026 38.5166 82.7444L38.7388 84.375H40.7828V74.1853C40.7828 71.6548 39.43 69.9855 35.953 69.9855ZM37.9703 80.8854C37.2672 81.7755 35.9362 82.2762 34.9616 82.2762C33.5744 82.2762 32.8607 81.3122 32.8607 79.9769C32.8607 78.5313 33.7059 77.3437 36.9346 77.3437H37.9703V80.8854ZM48.9468 81.3382L48.3597 78.8013L45.7187 70.3125H42.632L46.8866 84.375H50.4205C52.4484 79.4531 53.8961 74.5312 54.6998 70.3125H51.6967C51.2249 73.8281 50.2792 77.6419 48.9468 81.3382ZM61.8871 69.9855C59.8558 69.9855 58.0825 70.4876 56.6369 71.126L57.0559 72.8789C58.1957 72.4605 59.673 72.0724 61.1186 72.0724C63.1197 72.0724 63.9859 72.8789 63.9859 74.5481V75.9375H62.9819C58.1141 75.9375 55.919 77.7551 55.919 80.595C55.919 83.0412 57.3646 84.3968 60.0885 84.3968C61.8407 84.3968 63.1464 83.8026 64.3712 82.7444L64.5948 84.375H66.7984V74.1853C66.7984 71.6548 65.3613 69.9855 61.8871 69.9855ZM60.895 82.2635C59.5063 82.2635 58.7533 81.3051 58.7533 79.9706C58.7533 78.5257 59.5612 77.3437 62.7864 77.3437H63.9859V80.8594H63.9388C62.9088 81.5625 61.8667 82.2635 60.895 82.2635ZM25.3141 81.1216C25.3141 83.4216 25.0012 84.3827 24.6257 85.1301C24.1933 85.969 23.1822 86.8704 22.0938 87.4287L23.4536 89.0775C24.8823 88.5508 26.226 87.6164 27.0339 86.4358C27.8425 85.2244 28.1266 83.9812 28.1266 80.9044V65.3906H25.3141V81.1216Z" fill="black"/>
</svg>
