<svg width="91" height="90" viewBox="0 0 91 90" fill="none" xmlns="http://www.w3.org/2000/svg">
<path d="M5.69141 5.625V84.375H84.4414V5.625H5.69141ZM48.5483 67.0416C48.5483 74.7056 44.0483 78.2044 37.4923 78.2044C31.5692 78.2044 28.1408 75.1472 26.383 71.4375L32.413 67.7981C33.5745 69.8541 34.6292 71.595 37.1773 71.595C39.6017 71.595 41.1486 70.6444 41.1486 66.9375V41.7825H48.5483V67.0416ZM66.0533 78.2044C59.1795 78.2044 54.733 74.9363 52.5702 70.6444L58.6002 67.1653C60.1836 69.75 62.2564 71.6653 65.8958 71.6653C68.953 71.6653 70.9245 70.1353 70.9245 68.0091C70.9245 65.4778 68.9192 64.5806 65.5273 63.0872L63.6823 62.2969C58.3386 60.03 54.8061 57.1641 54.8061 51.1341C54.8061 45.5794 59.0417 41.3606 65.6342 41.3606C70.3452 41.3606 73.7202 42.9947 76.1473 47.2838L70.3817 50.9766C69.1161 48.7097 67.7436 47.8125 65.6173 47.8125C63.4573 47.8125 62.0848 49.185 62.0848 50.9766C62.0848 53.1928 63.4573 54.0872 66.6383 55.4766L68.4833 56.2669C74.7777 58.9556 78.3102 61.7175 78.3102 67.9022C78.3102 74.5481 73.0705 78.2016 66.0561 78.2016L66.0533 78.2044Z" fill="black"/>
</svg>
