<svg width="91" height="91" viewBox="0 0 91 91" fill="none" xmlns="http://www.w3.org/2000/svg">
<g clip-path="url(#clip0_757_334)">
<path d="M88.723 20.7913C88.7578 20.9132 88.7755 21.0394 88.7755 21.1663V40.475C88.7755 40.9813 88.5017 41.45 88.0667 41.6975L71.8555 51.035V69.5375C71.855 69.7851 71.7896 70.0282 71.6659 70.2427C71.5422 70.4572 71.3645 70.6356 71.1505 70.76L37.303 90.2375C37.2246 90.2805 37.1415 90.3145 37.0555 90.3388C37.0255 90.3463 36.9955 90.3688 36.9655 90.3763C36.7302 90.4438 36.4807 90.4438 36.2455 90.3763C36.2042 90.3688 36.1705 90.3463 36.133 90.3313C36.058 90.3013 35.9755 90.2788 35.9005 90.2375L2.06422 70.76C1.84897 70.6366 1.67009 70.4586 1.54564 70.244C1.4212 70.0293 1.3556 69.7856 1.35547 69.5375V11.5813C1.35547 11.4575 1.37422 11.3338 1.40797 11.2138C1.41922 11.1688 1.44547 11.1388 1.46047 11.0938C1.48303 11.019 1.51188 10.9462 1.54672 10.8763C1.56172 10.8275 1.60297 10.7938 1.63297 10.7525L1.75672 10.5838C1.80172 10.5463 1.85047 10.5163 1.89547 10.4825C1.94797 10.4375 1.99672 10.3925 2.04922 10.355L18.9767 0.616258C19.1905 0.492834 19.433 0.427856 19.6798 0.427856C19.9267 0.427856 20.1692 0.492834 20.383 0.616258L37.303 10.355H37.3105C37.3667 10.3925 37.4117 10.4338 37.4605 10.4788L37.603 10.58C37.6517 10.6325 37.678 10.6925 37.7267 10.7488C37.7567 10.79 37.8017 10.8275 37.8205 10.8725C37.858 10.9475 37.8842 11.015 37.9105 11.09C37.9217 11.1313 37.948 11.1688 37.9592 11.21C37.9967 11.3263 38.0117 11.45 38.0117 11.5775V47.7725L52.1117 39.6575V21.155C52.1117 21.0313 52.1267 20.9075 52.1605 20.7875C52.1717 20.75 52.198 20.7125 52.2092 20.6675C52.2344 20.5919 52.2644 20.518 52.2992 20.4463C52.3255 20.4013 52.3667 20.3713 52.393 20.3225C52.438 20.2663 52.4717 20.21 52.5167 20.1613C52.5617 20.1163 52.6105 20.0863 52.6555 20.0563C52.708 20.0188 52.753 19.97 52.8092 19.9363H52.813L69.7367 10.1938C69.9505 10.0703 70.193 10.0054 70.4398 10.0054C70.6867 10.0054 70.9292 10.0703 71.143 10.1938L88.0667 19.9363C88.1267 19.9738 88.168 20.015 88.2242 20.0525C88.2692 20.09 88.318 20.12 88.3592 20.1575C88.408 20.21 88.4417 20.27 88.4867 20.3225C88.5167 20.3675 88.558 20.4013 88.5767 20.4463C88.6147 20.5178 88.6449 20.5932 88.6667 20.6713C88.6892 20.7088 88.7117 20.75 88.723 20.7913ZM85.948 39.6613V23.6L80.0305 27.005L71.848 31.715V47.7763L85.948 39.6613ZM69.0355 68.7238V52.6475L60.9842 57.2413L38.0117 70.3588V86.5775L69.0355 68.7238ZM4.16422 14.0188V68.7238L35.188 86.5775V70.3588L18.9805 61.19L18.973 61.1788H18.9655C18.913 61.1413 18.8717 61.1 18.8155 61.0625C18.7742 61.025 18.7255 60.995 18.6842 60.9613L18.6805 60.9538C18.6317 60.9088 18.6017 60.86 18.5642 60.8038C18.5267 60.7625 18.4855 60.7213 18.4592 60.6688H18.4517C18.4217 60.6163 18.403 60.5525 18.3767 60.4925C18.3542 60.4325 18.3242 60.3913 18.3092 60.3313C18.295 60.2607 18.285 60.1893 18.2792 60.1175C18.2717 60.065 18.2567 60.0163 18.2567 59.9638V22.1375L10.0817 17.4238L4.16422 14.0188ZM19.678 3.46626L5.57797 11.5813L19.678 19.6963L33.7705 11.5813L19.678 3.46626ZM27.013 54.11L35.1955 49.4V14.0188L29.2705 17.4313L21.088 22.1375V57.5188L27.013 54.11ZM70.4417 13.0475L56.3417 21.1588L70.4417 29.27L84.538 21.155L70.4417 13.0475ZM69.0317 31.715L60.853 27.005L54.928 23.6038V39.665L63.1105 44.375L69.0355 47.78L69.0317 31.715ZM36.5942 67.9175L57.2717 56.1125L67.6067 50.2175L53.518 42.1063L37.3067 51.44L22.528 59.9525L36.5942 67.9175Z" fill="black"/>
</g>
<defs>
<clipPath id="clip0_757_334">
<rect width="90" height="90" fill="white" transform="translate(0.0664062 0.428711)"/>
</clipPath>
</defs>
</svg>
