<svg width="91" height="91" viewBox="0 0 91 91" fill="none" xmlns="http://www.w3.org/2000/svg">
<g clip-path="url(#clip0_757_326)">
<path d="M61.5852 21.0575C61.1539 21.0575 60.8614 21.11 60.5577 21.1812V21.23H60.6102C60.8127 21.62 61.1577 21.905 61.4127 22.2537C61.6152 22.655 61.7877 23.0562 61.9902 23.4537L62.0427 23.3975C62.3952 23.15 62.5677 22.7525 62.5677 22.1487C62.4177 21.9725 62.3952 21.7962 62.2677 21.6237C62.1177 21.3725 61.7952 21.2487 61.5927 21.05L61.5852 21.0575ZM21.7039 70.535H18.2277C18.1299 65.0104 17.7921 59.4927 17.2152 53.9975H17.1852L11.8977 70.535H9.25391L4.00391 53.9975H3.96641C3.55576 59.5013 3.31189 65.0164 3.23516 70.535H0.0664062C0.272656 63.1625 0.786406 56.2475 1.60391 49.7975H5.91641L10.9227 65.0375H10.9527L16.0039 49.7975H20.1102C21.0177 57.3537 21.5502 64.2725 21.7152 70.535H21.7039ZM36.7677 55.235C35.3502 62.9037 33.4827 68.4837 31.1727 71.96C29.3652 74.645 27.3852 75.9837 25.2364 75.9837C24.6627 75.9837 23.9614 75.8112 23.1139 75.4662V73.6137C23.5264 73.6775 24.0139 73.7112 24.5614 73.7112C25.5664 73.7112 26.3727 73.43 26.9877 72.8787C27.7264 72.2037 28.0939 71.4462 28.0939 70.61C28.0939 70.0287 27.8052 68.8475 27.2314 67.07L23.4289 55.235H26.8414L29.5677 64.085C30.1827 66.095 30.4414 67.4975 30.3364 68.2962C31.8364 64.3062 32.8789 59.945 33.4677 55.235H36.7677ZM82.9864 70.535H73.1239V49.7975H76.4427V67.985H82.9864V70.535ZM70.5364 71.0412L66.7264 69.1662C67.0639 68.8812 67.3902 68.5737 67.6827 68.2287C69.3064 66.3312 70.1127 63.5112 70.1127 59.78C70.1127 52.9175 67.4202 49.4825 62.0314 49.4825C59.3914 49.4825 57.3289 50.3525 55.8439 52.0962C54.2314 54.0012 53.4214 56.8062 53.4214 60.515C53.4214 64.16 54.1339 66.8375 55.5739 68.54C56.8864 70.0775 58.8627 70.8462 61.5102 70.8462C62.5002 70.8462 63.4077 70.7225 64.2289 70.4787L69.1977 73.3737L70.5477 71.0412H70.5364ZM58.1914 66.3837C57.3477 65.0337 56.9277 62.8587 56.9277 59.8737C56.9277 54.65 58.5177 52.0362 61.6902 52.0362C63.3514 52.0362 64.5777 52.6625 65.3539 53.9112C66.1939 55.2687 66.6139 57.4212 66.6139 60.3725C66.6139 65.6375 65.0239 68.2775 61.8514 68.2775C60.1827 68.2775 58.9639 67.6512 58.1839 66.4025L58.1914 66.3837ZM51.9739 64.79C51.9739 66.5525 51.3289 68 50.0389 69.125C48.7489 70.25 47.0277 70.8125 44.8489 70.8125C42.8127 70.8125 40.8589 70.1675 38.9502 68.8812L39.8389 67.0962C41.4814 67.9212 42.9627 68.3262 44.3014 68.3262C45.5464 68.3262 46.5252 68.0525 47.2377 67.5012C47.5938 67.2328 47.8813 66.8839 48.0768 66.4831C48.2724 66.0823 48.3703 65.6409 48.3627 65.195C48.3627 63.9575 47.5002 62.9075 45.9327 62.0262C44.4777 61.2275 41.5714 59.5625 41.5714 59.5625C39.9889 58.4112 39.2014 57.1775 39.2014 55.1487C39.2014 53.4612 39.7902 52.1112 40.9639 51.08C42.1452 50.0375 43.6639 49.5237 45.5389 49.5237C47.4589 49.5237 49.2139 50.0337 50.7889 51.0612L49.9902 52.8462C48.7317 52.2934 47.3746 52.0001 46.0002 51.9837C44.9389 51.9837 44.1177 52.2387 43.5477 52.7562C43.2584 52.9959 43.0252 53.296 42.8645 53.6355C42.7039 53.975 42.6196 54.3456 42.6177 54.7212C42.6177 55.9512 43.4952 57.0087 45.1152 57.9087C46.5889 58.715 49.5664 60.4212 49.5664 60.4212C51.1902 61.565 51.9964 62.7837 51.9964 64.8012L51.9739 64.79ZM87.1564 42.845C85.1502 42.7925 83.5939 42.995 82.2927 43.55C81.9177 43.7 81.3177 43.7 81.2652 44.1762C81.4714 44.375 81.5014 44.7012 81.6777 44.9787C81.9777 45.4812 82.4952 46.1525 82.9752 46.505C83.5002 46.9175 84.0252 47.315 84.5764 47.6675C85.5514 48.2675 86.6577 48.6237 87.6139 49.2275C88.1577 49.58 88.7127 50.0262 89.2639 50.4012C89.5377 50.5887 89.7139 50.9262 90.0664 51.0462V50.9712C89.8939 50.7462 89.8414 50.42 89.6727 50.1687C89.4214 49.9175 89.1702 49.6925 88.9227 49.445C88.1864 48.4747 87.3077 47.6213 86.3164 46.9137C85.5139 46.3662 83.7589 45.6012 83.4289 44.6825L83.3802 44.63C83.9277 44.5812 84.5802 44.3825 85.1052 44.2325C85.9564 44.0075 86.7364 44.0562 87.6177 43.835C88.0152 43.7337 88.4164 43.61 88.8177 43.4825V43.2575C88.3677 42.8075 88.0302 42.1962 87.5652 41.7762C86.2672 40.6417 84.8831 39.6099 83.4252 38.69C82.6377 38.1875 81.6402 37.865 80.8114 37.4375C80.5114 37.2875 80.0089 37.2125 79.8364 36.9612C79.3864 36.4137 79.1239 35.6862 78.8052 35.0337C78.0688 33.6053 77.3846 32.1506 76.7539 30.6725C76.3039 29.69 76.0302 28.7112 75.4789 27.8112C72.8914 23.5475 70.0902 20.9637 65.7814 18.4362C64.8552 17.9112 63.7452 17.6862 62.5714 17.4087C61.9452 17.3787 61.3189 17.3337 60.6964 17.3075C60.2839 17.1312 59.8864 16.655 59.5339 16.4262C58.1089 15.5262 54.4189 13.5762 53.3689 16.1562C52.6939 17.7837 54.3702 19.3887 54.9514 20.2137C55.3827 20.7875 55.9264 21.4437 56.2264 22.0887C56.4027 22.5237 56.4514 22.97 56.6277 23.4237C57.0252 24.5262 57.4039 25.7562 57.9289 26.7875C58.2027 27.3125 58.5027 27.8637 58.8552 28.3362C59.0577 28.61 59.4027 28.7375 59.4814 29.1875C59.1289 29.6975 59.1064 30.44 58.9039 31.0625C58.0039 33.9012 58.3564 37.4112 59.6314 39.5C60.0327 40.1225 60.9889 41.5025 62.2677 40.9737C63.3927 40.5237 63.1452 39.0987 63.4677 37.8425C63.5427 37.5425 63.4939 37.3437 63.6477 37.1412V37.1975C64.0002 37.9025 64.3527 38.5737 64.6752 39.2787C65.4477 40.5087 66.7977 41.7837 67.9264 42.635C68.5264 43.085 69.0027 43.865 69.7527 44.1425V44.0675H69.6964C69.5352 43.85 69.3214 43.745 69.1189 43.5687C68.6434 43.1033 68.2046 42.6018 67.8064 42.0687C66.7498 40.6251 65.813 39.0975 65.0052 37.5012C64.5927 36.7137 64.2477 35.8662 63.9177 35.09C63.7677 34.79 63.7677 34.34 63.5164 34.19C63.1414 34.7375 62.5902 35.2137 62.3164 35.8887C61.8402 36.9687 61.7914 38.2962 61.6114 39.6762C61.5102 39.7025 61.5589 39.6762 61.5102 39.7287C60.7077 39.5337 60.4339 38.7012 60.1339 38.0037C59.3839 36.2225 59.2602 33.3612 59.9089 31.31C60.0852 30.785 60.8352 29.1275 60.5352 28.625C60.3777 28.1487 59.8827 27.875 59.6089 27.4887C59.2568 26.986 58.9553 26.4496 58.7089 25.8875C58.1089 24.485 57.8089 22.9325 57.1564 21.53C56.8564 20.8812 56.3314 20.2025 55.9039 19.6062C55.4277 18.9312 54.9027 18.455 54.5239 17.6562C54.4002 17.3825 54.2239 16.9287 54.4227 16.6287C54.4752 16.4262 54.5802 16.3475 54.7752 16.2912C55.1052 16.0212 56.0314 16.3737 56.3577 16.5237C57.2839 16.8987 58.0639 17.2512 58.8402 17.7762C59.1927 18.0237 59.5714 18.5 60.0214 18.6237H60.5464C61.3489 18.8 62.2527 18.6762 63.0027 18.8975C64.3339 19.325 65.5339 19.9475 66.6102 20.6225C69.9264 22.7409 72.6238 25.6983 74.4289 29.195C74.7289 29.7725 74.8602 30.3012 75.1339 30.9012C75.6589 32.1387 76.3077 33.3875 76.8402 34.5837C77.3652 35.765 77.8714 36.9687 78.6252 37.9475C79.0002 38.4725 80.5077 38.7462 81.1827 39.02C81.6814 39.245 82.4577 39.4512 82.9077 39.725C83.7702 40.25 84.6102 40.85 85.4202 41.4275C85.8327 41.7125 87.0814 42.3387 87.1564 42.845Z" fill="black"/>
</g>
<defs>
<clipPath id="clip0_757_326">
<rect width="90" height="90" fill="white" transform="translate(0.0664062 0.428711)"/>
</clipPath>
</defs>
</svg>
