<svg width="91" height="91" viewBox="0 0 91 91" fill="none" xmlns="http://www.w3.org/2000/svg">
<g clip-path="url(#clip0_757_350)">
<path d="M66.8605 85.1021C66.5258 85.2793 66.5539 85.3356 66.8745 85.1724C66.9733 85.1321 67.0639 85.0739 67.1417 85.0009C67.1417 84.9418 67.1417 84.9418 66.8605 85.1021ZM67.5355 84.7365C67.3752 84.8687 67.3752 84.8687 67.5664 84.7815C67.6371 84.7484 67.7017 84.7037 67.7577 84.6493C67.7577 84.5734 67.7127 84.5902 67.5355 84.7365ZM67.9742 84.4721C67.8139 84.6043 67.8139 84.6043 68.0052 84.5171C68.0761 84.4833 68.1408 84.4377 68.1964 84.3821C68.1964 84.3118 68.1514 84.3259 67.9742 84.4721ZM68.4186 84.2106C68.2583 84.3427 68.2583 84.3427 68.4439 84.2527C68.548 84.1965 68.6352 84.1374 68.6352 84.1206C68.6352 84.0502 68.5902 84.0643 68.4186 84.2106ZM69.0177 83.814C68.7111 84.0193 68.6042 84.1515 68.8855 84.0052C69.0739 83.8899 69.3945 83.6368 69.3383 83.6368C69.2173 83.6818 69.1161 83.7578 69.0148 83.814H69.0177ZM42.1217 0.744C41.9164 0.758062 41.3005 0.814312 40.7605 0.859312C27.9692 2.01806 16.002 8.90306 8.41672 19.509C4.22487 25.3259 1.5001 32.0694 0.474219 39.1656C0.111406 41.6406 0.0664062 42.3718 0.0664062 45.7271C0.0664062 49.0796 0.111406 49.7996 0.474219 52.2746C2.92391 69.1806 14.9502 83.3724 31.2514 88.6318C34.1848 89.5684 37.2589 90.2152 40.7605 90.6118C42.1217 90.7581 48.0083 90.7581 49.3695 90.6118C55.422 89.9368 60.5323 88.4434 65.5892 85.8643C66.3655 85.4706 66.5117 85.3665 66.4077 85.2793C63.9408 82.0184 61.4948 78.7418 59.0698 75.4496L51.8783 65.7381L42.8698 52.3927C39.8733 47.9244 36.8461 43.4768 33.7883 39.0502C33.7573 39.0502 33.718 44.9818 33.7011 52.2156C33.6702 64.8859 33.6702 65.4006 33.5098 65.6931C33.3561 66.0464 33.0807 66.3328 32.7336 66.5002C32.4552 66.6324 32.2048 66.6606 30.8745 66.6606H29.353L28.9564 66.4131C28.708 66.2537 28.5062 66.0315 28.3714 65.769L28.1802 65.3724L28.1942 47.7352L28.2252 30.0981L28.5036 29.7465C28.6814 29.5303 28.9003 29.3516 29.1477 29.2206C29.5161 29.0434 29.6623 29.0152 31.1839 29.0152C32.9698 29.0152 33.2652 29.0856 33.7348 29.6003C37.3842 35.028 41.002 40.4769 44.5883 45.9465C50.4355 54.8115 58.4173 66.9081 62.3408 72.8424L69.4761 83.6396L69.8277 83.4062C73.2568 81.1274 76.3643 78.3983 79.0667 75.2921C84.7354 68.8039 88.4138 60.8193 89.6614 52.2943C90.0242 49.8193 90.0692 49.0852 90.0692 45.7327C90.0692 42.3774 90.0242 41.6603 89.6614 39.1853C87.2117 22.2793 75.1855 8.08744 58.8842 2.82525C55.8377 1.86034 52.7019 1.20361 49.5242 0.864937C48.672 0.77775 42.8558 0.673687 42.1245 0.749625L42.1217 0.744ZM60.5352 27.9606C60.7444 28.0633 60.931 28.2068 61.0841 28.3826C61.2372 28.5584 61.3537 28.7629 61.4267 28.9843C61.5027 29.2206 61.5167 34.1115 61.5027 45.1281L61.4717 60.9456L58.6902 56.6706L55.8917 52.3927V40.9093C55.8917 33.4646 55.9227 29.2909 55.962 29.0856C56.0997 28.6148 56.4155 28.2163 56.8423 27.9746C57.1911 27.7974 57.3261 27.7834 58.7183 27.7834C60.0205 27.7834 60.2427 27.7974 60.5352 27.9606Z" fill="black"/>
</g>
<defs>
<clipPath id="clip0_757_350">
<rect width="90" height="90" fill="white" transform="translate(0.0664062 0.713074)"/>
</clipPath>
</defs>
</svg>
