<svg width="91" height="91" viewBox="0 0 91 91" fill="none" xmlns="http://www.w3.org/2000/svg">
<g clip-path="url(#clip0_757_342)">
<path d="M45.0664 89.9771C43.7839 89.9771 42.5914 89.6433 41.4777 89.0658L30.1189 82.5483C28.4127 81.6408 29.2677 81.3108 29.7814 81.1458C32.0839 80.4033 32.5114 80.2383 34.9039 78.9146C35.1589 78.7496 35.5039 78.8321 35.7589 78.9971L44.4702 84.0333C44.8077 84.1983 45.2389 84.1983 45.4939 84.0333L79.5702 64.9683C79.9077 64.8033 80.0802 64.4733 80.0802 64.0608V26.0133C80.0802 25.6008 79.9114 25.2708 79.5702 25.1058L45.4939 6.12707C45.1527 5.96207 44.7252 5.96207 44.4702 6.12707L10.3939 25.1058C10.0527 25.2708 9.88016 25.6833 9.88016 26.0133V64.0608C9.88016 64.3908 10.0527 64.8033 10.3939 64.9683L19.7014 70.1696C24.7414 72.6446 27.8989 69.7571 27.8989 66.8696V29.3171C27.8989 28.8221 28.3264 28.3271 28.9264 28.3271H33.2802C33.7939 28.3271 34.3039 28.7396 34.3039 29.3171V66.8658C34.3039 73.3871 30.6327 77.1821 24.2277 77.1821C22.2627 77.1821 20.7252 77.1821 16.3714 75.1196L7.40516 70.1696C6.32472 69.5755 5.42247 68.7037 4.79158 67.6443C4.1607 66.5849 3.82405 65.3763 3.81641 64.1433V26.0958C3.81641 23.6208 5.18141 21.3108 7.40516 20.0733L41.4814 1.00457C42.5908 0.435643 43.8196 0.138916 45.0664 0.138916C46.3132 0.138916 47.542 0.435643 48.6514 1.00457L82.7314 20.0696C84.9514 21.3071 86.3164 23.6171 86.3164 26.0921V64.1396C86.3164 66.6146 84.9514 68.9246 82.7314 70.1658L48.6552 89.2271C47.5225 89.7181 46.3009 89.9708 45.0664 89.9696M55.5702 63.8058C40.6264 63.8058 37.5514 57.2058 37.5514 51.5921C37.5514 51.0971 37.9789 50.6021 38.5752 50.6021H43.0152C43.5289 50.6021 43.9527 50.9321 43.9527 51.4271C44.6389 55.7996 46.6039 57.9446 55.6564 57.9446C62.8302 57.9446 65.9052 56.3771 65.9052 52.6646C65.9052 50.5196 65.0502 48.9521 53.8639 47.8796C44.5527 46.9683 38.7477 44.9921 38.7477 37.8108C38.7477 31.1246 44.5527 27.1608 54.2914 27.1608C65.2227 27.1608 70.6039 30.7946 71.2864 38.7183C71.2788 38.9866 71.1884 39.2459 71.0277 39.4608C70.8589 39.6258 70.6039 39.7908 70.3452 39.7908H65.9052C65.6895 39.7856 65.4813 39.7103 65.3122 39.5764C65.1431 39.4424 65.0221 39.2571 64.9677 39.0483C63.9402 34.5108 61.2927 33.0221 54.2914 33.0221C46.4314 33.0221 45.4939 35.6621 45.4939 37.6458C45.4939 40.0383 46.6039 40.7808 57.1939 42.1008C67.6977 43.4208 72.6514 45.3183 72.6514 52.4133C72.5652 59.6808 66.4189 63.8058 55.5702 63.8058Z" fill="black"/>
</g>
<defs>
<clipPath id="clip0_757_342">
<rect width="90" height="90" fill="white" transform="translate(0.0664062 0.14209)"/>
</clipPath>
</defs>
</svg>
