<svg width="91" height="91" viewBox="0 0 91 91" fill="none" xmlns="http://www.w3.org/2000/svg">
<g clip-path="url(#clip0_757_328)">
<path d="M45.0664 21.196C19.8327 21.196 0.0664062 31.9023 0.0664062 45.571C0.0664062 59.2398 19.8327 69.946 45.0664 69.946C70.3002 69.946 90.0664 59.2398 90.0664 45.571C90.0664 31.9023 70.3002 21.196 45.0664 21.196ZM40.3939 28.696H45.3064L43.7464 36.196H48.1339C50.9164 36.196 52.7839 36.586 53.8489 37.5573C54.8877 38.5173 55.2027 40.0923 54.7864 42.2373L52.8364 51.196H47.8414L49.6377 42.9123C49.8552 41.776 49.7689 40.9848 49.3864 40.5685C49.0077 40.1523 48.1714 39.946 46.9189 39.946H42.9852L40.6114 51.196H35.6914L40.3939 28.696ZM18.8164 36.196H28.8139C33.5802 36.196 36.4677 39.391 35.3389 44.1573C34.0264 49.696 30.5164 51.196 24.0514 51.196H20.9614L19.9827 56.821H15.0139L18.8164 36.196ZM58.1914 36.196H68.1889C72.9552 36.196 75.8427 39.391 74.7139 44.1573C73.4014 49.696 69.8877 51.196 63.4264 51.196H60.3364L59.3577 56.821H54.3889L58.1914 36.196ZM23.0727 39.946L21.6589 47.446H24.8652C27.6402 47.446 30.2202 47.131 30.6514 42.9948C30.8127 41.3898 30.1452 39.946 26.9389 39.946H23.0727ZM62.4477 39.946L61.0339 47.446H64.2402C67.0152 47.446 69.5952 47.131 70.0264 42.9948C70.1877 41.3898 69.5239 39.946 66.3139 39.946H62.4477Z" fill="black"/>
</g>
<defs>
<clipPath id="clip0_757_328">
<rect width="90" height="90" fill="white" transform="translate(0.0664062 0.571045)"/>
</clipPath>
</defs>
</svg>
