<svg width="75" height="90" viewBox="0 0 75 90" fill="none" xmlns="http://www.w3.org/2000/svg">
<g clip-path="url(#clip0_779_322)">
<path d="M73.8784 68.3762L42.9943 2.83009C42.6105 2.02358 42.0157 1.33576 41.2728 0.839413C40.5299 0.343064 39.6666 0.0566482 38.7742 0.010474C37.8801 -0.049407 36.9866 0.13686 36.191 0.549017C35.3955 0.961174 34.7282 1.58344 34.2618 2.34815L0.764926 56.5685C0.25559 57.3872 -0.00966131 58.334 0.000268942 59.298C0.0101992 60.262 0.294899 61.2031 0.820993 62.0112L17.1977 87.3566C17.8173 88.3081 18.728 89.0338 19.7941 89.4257C20.8602 89.8175 22.0245 89.8544 23.1132 89.5309L70.639 75.4816C71.3546 75.2725 72.0169 74.9123 72.5813 74.4254C73.1456 73.9384 73.5987 73.3361 73.91 72.659C74.217 71.9855 74.3734 71.2533 74.3683 70.5132C74.3632 69.7732 74.1968 69.0431 73.8807 68.3739L73.8784 68.3762ZM66.9639 71.1874L26.6356 83.1051C25.4053 83.471 24.2244 82.4052 24.4803 81.1643L38.8886 12.2174C39.1579 10.9275 40.9404 10.7231 41.504 11.9169L68.1761 68.5219C68.294 68.7742 68.3558 69.0489 68.3572 69.3273C68.3586 69.6057 68.2995 69.8811 68.184 70.1344C68.0686 70.3878 67.8996 70.6131 67.6886 70.7948C67.4775 70.9766 67.2296 71.1104 66.9618 71.1871L66.9639 71.1874Z" fill="black"/>
</g>
<defs>
<clipPath id="clip0_779_322">
<rect width="74.3684" height="90" fill="white"/>
</clipPath>
</defs>
</svg>
