<svg width="91" height="91" viewBox="0 0 91 91" fill="none" xmlns="http://www.w3.org/2000/svg">
<path d="M45.0664 38.4836C48.9289 38.4836 52.0789 41.6336 52.0789 45.5711C52.0789 49.3211 48.9289 52.5086 45.0664 52.5086C41.2039 52.5086 38.0539 49.3211 38.0539 45.5711C38.0539 41.6336 41.2039 38.4836 45.0664 38.4836ZM27.7039 75.5711C30.0664 76.9961 35.2414 74.8211 41.2039 69.1961C39.2539 66.9836 37.3414 64.5836 35.5414 62.0711C32.5195 61.7819 29.5152 61.3312 26.5414 60.7211C24.6289 68.7461 25.3414 74.2586 27.7039 75.5711ZM30.3664 54.0461L29.2789 52.1336C28.8664 53.2211 28.4539 54.3086 28.1914 55.3586C29.2039 55.5836 30.3289 55.7711 31.4914 55.9586L30.3664 54.0461ZM54.8914 51.1961L57.9289 45.5711L54.8914 39.9461C53.7664 37.9586 52.5664 36.1961 51.4789 34.4336C49.4539 34.3211 47.3164 34.3211 45.0664 34.3211C42.8164 34.3211 40.6789 34.3211 38.6539 34.4336C37.5664 36.1961 36.3664 37.9586 35.2414 39.9461L32.2039 45.5711L35.2414 51.1961C36.3664 53.1836 37.5664 54.9461 38.6539 56.7086C40.6789 56.8211 42.8164 56.8211 45.0664 56.8211C47.3164 56.8211 49.4539 56.8211 51.4789 56.7086C52.5664 54.9461 53.7664 53.1836 54.8914 51.1961ZM45.0664 25.9961C44.3539 26.8211 43.6039 27.6836 42.8539 28.6961H47.2789C46.5289 27.6836 45.7789 26.8211 45.0664 25.9961ZM45.0664 65.1461C45.7789 64.3211 46.5289 63.4586 47.2789 62.4461H42.8539C43.6039 63.4586 44.3539 64.3211 45.0664 65.1461ZM62.3914 15.5711C60.0664 14.1461 54.8914 16.3211 48.9289 21.9461C50.8789 24.1586 52.7914 26.5586 54.5914 29.0711C57.6664 29.3711 60.7039 29.8211 63.5914 30.4211C65.5039 22.3961 64.7914 16.8836 62.3914 15.5711ZM59.7664 37.0961L60.8539 39.0086C61.2664 37.9211 61.6789 36.8336 61.9414 35.7836C60.9289 35.5586 59.8039 35.3711 58.6414 35.1836L59.7664 37.0961ZM65.2039 10.6586C70.7164 13.8086 71.3164 22.0961 68.9914 31.7711C78.5164 34.5836 85.3789 39.2336 85.3789 45.5711C85.3789 51.9086 78.5164 56.5586 68.9914 59.3711C71.3164 69.0461 70.7164 77.3336 65.2039 80.4836C59.7289 83.6336 52.2664 80.0336 45.0664 73.1711C37.8664 80.0336 30.4039 83.6336 24.8914 80.4836C19.4164 77.3336 18.8164 69.0461 21.1414 59.3711C11.6164 56.5586 4.75391 51.9086 4.75391 45.5711C4.75391 39.2336 11.6164 34.5836 21.1414 31.7711C18.8164 22.0961 19.4164 13.8086 24.8914 10.6586C30.4039 7.50858 37.8664 11.1086 45.0664 17.9711C52.2664 11.1086 59.7289 7.50858 65.2039 10.6586ZM64.1164 45.5711C65.3914 48.3836 66.5164 51.1961 67.4539 54.0461C75.3289 51.6836 79.7539 48.3086 79.7539 45.5711C79.7539 42.8336 75.3289 39.4586 67.4539 37.0961C66.5164 39.9461 65.3914 42.7586 64.1164 45.5711ZM26.0164 45.5711C24.7414 42.7586 23.6164 39.9461 22.6789 37.0961C14.8039 39.4586 10.3789 42.8336 10.3789 45.5711C10.3789 48.3086 14.8039 51.6836 22.6789 54.0461C23.6164 51.1961 24.7414 48.3836 26.0164 45.5711ZM59.7664 54.0461L58.6414 55.9586C59.8039 55.7711 60.9289 55.5836 61.9414 55.3586C61.6789 54.3086 61.2664 53.2211 60.8539 52.1336L59.7664 54.0461ZM48.9289 69.1961C54.8914 74.8211 60.0664 76.9961 62.3914 75.5711C64.7914 74.2586 65.5039 68.7461 63.5914 60.7211C60.7039 61.3211 57.6664 61.7711 54.5914 62.0711C52.7914 64.5836 50.8789 66.9836 48.9289 69.1961ZM30.3664 37.0961L31.4914 35.1836C30.3289 35.3711 29.2039 35.5586 28.1914 35.7836C28.4539 36.8336 28.8664 37.9211 29.2789 39.0086L30.3664 37.0961ZM41.2039 21.9461C35.2414 16.3211 30.0664 14.1461 27.7039 15.5711C25.3414 16.8836 24.6289 22.3961 26.5414 30.4211C29.5152 29.8109 32.5195 29.3603 35.5414 29.0711C37.3414 26.5586 39.2539 24.1586 41.2039 21.9461Z" fill="black"/>
</svg>
