<svg width="91" height="91" viewBox="0 0 91 91" fill="none" xmlns="http://www.w3.org/2000/svg">
<path d="M45.0664 22.6316C35.0539 22.6316 28.8289 27.6191 26.3164 37.6316C30.0664 32.6441 34.4539 30.7691 39.4414 32.0066C42.2914 32.7191 44.3539 34.7816 46.6039 37.0691C50.2789 40.8191 54.4414 45.1316 63.8164 45.1316C73.8289 45.1316 80.0539 40.1441 82.5664 30.1316C78.8164 35.1191 74.4289 36.9941 69.4414 35.7566C66.5914 35.0441 64.5664 32.9816 62.2789 30.6941C58.6039 26.9441 54.4414 22.6316 45.0664 22.6316ZM26.3164 45.1316C16.3039 45.1316 10.0789 50.1191 7.56641 60.1316C11.3164 55.1441 15.7039 53.2691 20.6914 54.5066C23.5414 55.2191 25.5664 57.2816 27.8539 59.5691C31.5289 63.3191 35.6914 67.6316 45.0664 67.6316C55.0789 67.6316 61.3039 62.6441 63.8164 52.6316C60.0664 57.6191 55.6789 59.4941 50.6914 58.2566C47.8414 57.5441 45.8164 55.4816 43.5289 53.1941C39.8539 49.4441 35.6914 45.1316 26.3164 45.1316Z" fill="black"/>
</svg>
