<svg width="91" height="91" viewBox="0 0 91 91" fill="none" xmlns="http://www.w3.org/2000/svg">
<path d="M1.47266 45.5078V89.4531H89.3633V1.5625H1.47266V45.5078ZM72.2984 41.9922C74.4035 42.4807 76.3168 43.5817 77.7969 45.1562C78.6117 46.0045 79.32 46.949 79.9063 47.9688C79.9063 48.0812 76.1094 50.6477 73.7961 52.082C73.7117 52.1383 73.3742 51.7727 73.0016 51.2172C72.5793 50.4885 71.9792 49.8787 71.2575 49.4447C70.5358 49.0106 69.7158 48.7665 68.8742 48.7352C66.2094 48.5523 64.4938 49.9516 64.5078 52.2508C64.4858 52.8232 64.6168 53.3912 64.8875 53.8961C65.4711 55.1125 66.5609 55.8367 69.9781 57.3133C76.2711 60.0203 78.9641 61.8062 80.6375 64.3445C82.5078 67.157 82.9227 71.6992 81.657 75.0602C80.2508 78.7164 76.8055 81.1984 71.9328 82.0211C69.7073 82.276 67.4587 82.2524 65.2391 81.9508C61.8515 81.4012 58.7266 79.7883 56.3164 77.3453C55.5078 76.4523 53.9328 74.125 54.0312 73.9562C54.2879 73.7657 54.5582 73.5942 54.8398 73.443L58.0742 71.5867L60.5984 70.1242L61.1258 70.9047C62.0158 72.1778 63.1484 73.2626 64.4586 74.0969C67.2711 75.5734 71.1102 75.3695 73.0086 73.6609C73.646 73.0348 74.0436 72.205 74.1323 71.316C74.2209 70.4269 73.995 69.5349 73.4938 68.7953C72.7906 67.818 71.3844 66.9953 67.4539 65.2797C62.9187 63.325 60.9641 62.1156 59.1781 60.1891C58.0632 58.9177 57.24 57.4178 56.7664 55.7945C56.4131 53.94 56.3609 52.0407 56.6117 50.1695C57.5469 45.7891 60.8305 42.7305 65.6258 41.8234C67.8465 41.5487 70.0961 41.6103 72.2984 42.0063V41.9922ZM51.6687 45.6766V49.2766H40.257V81.782H32.1641V49.2695H20.7242V45.7539C20.6935 44.5436 20.7264 43.3326 20.8227 42.1258C20.8648 42.0695 27.8539 42.0414 36.2914 42.0555H51.6266L51.6687 45.6766Z" fill="black"/>
</svg>
