<svg width="91" height="91" viewBox="0 0 91 91" fill="none" xmlns="http://www.w3.org/2000/svg">
<g clip-path="url(#clip0_757_346)">
<path d="M31.1399 39.8096L33.0599 7.34582C33.0752 7.0918 33.1745 6.85006 33.3422 6.65863C33.5098 6.4672 33.7364 6.33693 33.9862 6.28832L65.2312 0.164573C65.4241 0.126678 65.6236 0.139011 65.8104 0.200387C65.9973 0.261764 66.1652 0.370125 66.2981 0.515073C66.431 0.660021 66.5244 0.836691 66.5694 1.02813C66.6144 1.21957 66.6094 1.41936 66.5549 1.60832L60.7124 21.8696C60.6582 22.0582 60.6533 22.2575 60.6981 22.4486C60.7429 22.6396 60.836 22.816 60.9684 22.9609C61.1008 23.1057 61.2682 23.2141 61.4544 23.2758C61.6407 23.3376 61.8397 23.3505 62.0324 23.3133L70.9874 21.5883C71.1981 21.5471 71.4162 21.5659 71.6168 21.6424C71.8173 21.7189 71.9924 21.8502 72.1221 22.0213C72.2518 22.1924 72.3309 22.3965 72.3504 22.6103C72.3699 22.8241 72.329 23.0391 72.2324 23.2308L46.7699 74.0433L46.3087 74.7558C46.2095 74.9171 46.0705 75.0501 45.9049 75.1421C45.7394 75.234 45.553 75.2818 45.3637 75.2808C44.6999 75.2808 44.0512 74.7108 44.2199 73.8971L48.3262 54.0183C48.3665 53.8236 48.3555 53.6218 48.2943 53.4326C48.2331 53.2434 48.1238 53.0733 47.9771 52.9391C47.8304 52.8049 47.6513 52.7111 47.4575 52.6669C47.2636 52.6227 47.0615 52.6297 46.8712 52.6871L41.4974 54.3183C41.3072 54.3763 41.1051 54.3838 40.9111 54.3402C40.717 54.2965 40.5377 54.2032 40.3906 54.0693C40.2435 53.9355 40.1337 53.7657 40.072 53.5766C40.0103 53.3875 39.9988 53.1857 40.0387 52.9908L42.6262 40.3346C42.6654 40.1456 42.6563 39.9498 42.5998 39.7653C42.5433 39.5807 42.4412 39.4134 42.3028 39.2789C42.1645 39.1443 41.9945 39.0467 41.8085 38.9953C41.6225 38.9439 41.4265 38.9402 41.2387 38.9846L32.5387 40.9946C32.365 41.0345 32.1845 41.0334 32.0114 40.9914C31.8382 40.9494 31.6772 40.8677 31.5411 40.7527C31.4051 40.6377 31.2976 40.4927 31.2273 40.329C31.157 40.1652 31.1258 39.9874 31.1362 39.8096H31.1399ZM87.2999 10.0871L64.8824 14.1671L62.8424 21.2433L70.6312 19.7433C71.2348 19.623 71.8607 19.6912 72.4242 19.9388C72.9877 20.1863 73.4615 20.6012 73.7812 21.1271C74.0525 21.5644 74.2068 22.0643 74.2291 22.5785C74.2514 23.0927 74.1411 23.6041 73.9087 24.0633L48.4424 74.8796L48.3937 74.9733L48.3374 75.0596L47.8799 75.7721C47.6095 76.1957 47.2371 76.5447 46.7968 76.7871C46.3566 77.0295 45.8625 77.1576 45.3599 77.1596C44.9048 77.1571 44.4557 77.0543 44.0448 76.8586C43.6339 76.6628 43.2712 76.3789 42.9824 76.0271C42.7016 75.6794 42.502 75.2734 42.3982 74.8387C42.2943 74.404 42.289 73.9516 42.3824 73.5146L46.2412 54.8358L42.0412 56.1108C41.4667 56.2839 40.8538 56.2829 40.2798 56.1081C39.7059 55.9332 39.1966 55.5923 38.8162 55.1283C38.5325 54.782 38.3298 54.3767 38.2228 53.942C38.1157 53.5073 38.1071 53.0543 38.1974 52.6158L40.5599 41.0658L32.9587 42.8208C32.4441 42.9387 31.9077 42.9201 31.4025 42.7668C30.8974 42.6135 30.441 42.331 30.0787 41.9471C29.7978 41.6467 29.5808 41.2923 29.4409 40.9056C29.301 40.5188 29.2412 40.1077 29.2649 39.6971L30.7237 15.0596L2.82367 10.0721C2.3938 9.9945 1.95073 10.0412 1.54649 10.2067C1.14225 10.3722 0.793638 10.6497 0.541612 11.0065C0.289586 11.3632 0.144612 11.7845 0.123721 12.2208C0.102829 12.6571 0.206888 13.0904 0.423672 13.4696L43.4924 88.9833C43.6936 89.3368 43.9851 89.6304 44.3371 89.8342C44.6891 90.0379 45.0889 90.1445 45.4956 90.143C45.9022 90.1415 46.3012 90.0319 46.6517 89.8255C47.0021 89.6191 47.2914 89.3233 47.4899 88.9683L89.7149 13.4621C89.9266 13.0822 90.0259 12.65 90.0014 12.2158C89.9769 11.7816 89.8295 11.3633 89.5765 11.0096C89.3234 10.656 88.975 10.3815 88.572 10.2181C88.169 10.0548 87.7278 10.0094 87.2999 10.0871Z" fill="black"/>
</g>
<defs>
<clipPath id="clip0_757_346">
<rect width="90" height="90" fill="white" transform="translate(0.0664062 0.14209)"/>
</clipPath>
</defs>
</svg>
