<svg width="91" height="90" viewBox="0 0 91 90" fill="none" xmlns="http://www.w3.org/2000/svg">
<path d="M80.0839 15.3749L64.6339 7.87495C64.0615 7.64193 63.4516 7.51487 62.8339 7.49995H62.5339C61.5593 7.49444 60.6102 7.81081 59.8339 8.39995L59.3089 8.84995L29.7589 35.8125L16.8964 26.2499C16.3169 25.8067 15.6002 25.5811 14.8714 25.6124C14.1573 25.6043 13.4599 25.828 12.8839 26.2499L8.75886 29.9999C8.43544 30.2859 8.17755 30.6383 8.00281 31.0331C7.82807 31.4279 7.74059 31.8558 7.74636 32.2874C7.74481 32.724 7.83401 33.1561 8.00831 33.5563C8.18261 33.9566 8.4382 34.3162 8.75886 34.6124L20.0089 44.7749L8.75886 54.9749C8.442 55.2697 8.18928 55.6267 8.01648 56.0235C7.84367 56.4203 7.75449 56.8484 7.75449 57.2812C7.75449 57.714 7.84367 58.1421 8.01648 58.5389C8.18928 58.9357 8.442 59.2927 8.75886 59.5875L12.8839 63.3374C13.5059 63.8815 14.3076 64.1755 15.1339 64.1625C15.7685 64.1148 16.378 63.8943 16.8964 63.525L29.7589 53.7374L59.3089 80.7C60.0649 81.479 61.0771 81.9585 62.1589 82.0499H62.7964C63.4373 82.0594 64.0699 81.9045 64.6339 81.6L80.0839 74.1C80.8656 73.7257 81.5283 73.1421 81.9984 72.4139C82.4684 71.6857 82.7273 70.8415 82.7464 69.9749V19.6124C82.7438 18.7277 82.4929 17.8614 82.0222 17.1123C81.5515 16.3631 80.8799 15.7612 80.0839 15.3749ZM63.9964 61.7624L41.4964 44.7749L63.9964 27.7874V61.7624Z" fill="black"/>
</svg>
